<?xml version="1.0" encoding="UTF-8" standalone="no"?>
<!-- Generator: Adobe Illustrator 19.0.0, SVG Export Plug-In . SVG Version: 6.00 Build 0)  -->

<svg
   xmlns:dc="http://purl.org/dc/elements/1.1/"
   xmlns:cc="http://creativecommons.org/ns#"
   xmlns:rdf="http://www.w3.org/1999/02/22-rdf-syntax-ns#"
   xmlns:svg="http://www.w3.org/2000/svg"
   xmlns="http://www.w3.org/2000/svg"
   xmlns:sodipodi="http://sodipodi.sourceforge.net/DTD/sodipodi-0.dtd"
   xmlns:inkscape="http://www.inkscape.org/namespaces/inkscape"
   version="1.1"
   id="Capa_1"
   x="0px"
   y="0px"
   viewBox="0 0 297 172.118"
   xml:space="preserve"
   width="512"
   height="296.71521"
   inkscape:version="0.91 r13725"
   sodipodi:docname="privacy-eye.svg"><metadata
     id="metadata43"><rdf:RDF><cc:Work
         rdf:about=""><dc:format>image/svg+xml</dc:format><dc:type
           rdf:resource="http://purl.org/dc/dcmitype/StillImage" /><dc:title></dc:title></cc:Work></rdf:RDF></metadata><defs
     id="defs41" /><sodipodi:namedview
     pagecolor="#ffffff"
     bordercolor="#666666"
     borderopacity="1"
     objecttolerance="10"
     gridtolerance="10"
     guidetolerance="10"
     inkscape:pageopacity="0"
     inkscape:pageshadow="2"
     inkscape:window-width="1164"
     inkscape:window-height="646"
     id="namedview39"
     showgrid="false"
     fit-margin-top="0"
     fit-margin-left="0"
     fit-margin-right="0"
     fit-margin-bottom="0"
     inkscape:zoom="0.4609375"
     inkscape:cx="256"
     inkscape:cy="148.35759"
     inkscape:window-x="0"
     inkscape:window-y="0"
     inkscape:window-maximized="0"
     inkscape:current-layer="Capa_1" /><g
     id="g3"
     transform="translate(2.5337838e-6,-62.441)"><path
       d="m 148.417,202.749 c 29.914,0 54.251,-24.337 54.251,-54.251 0,-29.914 -24.337,-54.251 -54.251,-54.251 -29.914,0 -54.251,24.337 -54.251,54.251 0,29.914 24.337,54.251 54.251,54.251 z m 0,-77.834 c 13.004,0 23.583,10.579 23.583,23.583 0,13.004 -10.579,23.583 -23.583,23.583 -13.004,0 -23.583,-10.579 -23.583,-23.583 0,-13.004 10.579,-23.583 23.583,-23.583 z"
       id="path5"
       inkscape:connector-curvature="0"
       style="fill:#ffffff" /><path
       d="M 296.109,144.955 C 295.652,144.103 284.642,123.847 260.96,103.528 239.112,84.785 201.868,62.441 148.501,62.441 c -53.367,0 -90.612,22.344 -112.46,41.087 -23.683,20.318 -34.693,40.574 -35.15,41.427 -1.186,2.21 -1.188,4.866 -0.006,7.079 0.455,0.853 11.426,21.113 35.091,41.436 21.828,18.744 59.069,41.089 112.525,41.089 53.456,0 90.696,-22.345 112.524,-41.09 23.665,-20.321 34.635,-40.583 35.09,-41.436 1.182,-2.212 1.18,-4.868 -0.006,-7.078 z M 148.417,79.247 c 38.185,0 69.251,31.065 69.251,69.251 0,38.186 -31.066,69.251 -69.251,69.251 -38.186,0 -69.251,-31.066 -69.251,-69.251 0,-38.185 31.065,-69.251 69.251,-69.251 z"
       id="path7"
       inkscape:connector-curvature="0"
       style="fill:#ffffff" /></g><g
     id="g9"
     transform="translate(2.5337838e-6,-62.441)" /><g
     id="g11"
     transform="translate(2.5337838e-6,-62.441)" /><g
     id="g13"
     transform="translate(2.5337838e-6,-62.441)" /><g
     id="g15"
     transform="translate(2.5337838e-6,-62.441)" /><g
     id="g17"
     transform="translate(2.5337838e-6,-62.441)" /><g
     id="g19"
     transform="translate(2.5337838e-6,-62.441)" /><g
     id="g21"
     transform="translate(2.5337838e-6,-62.441)" /><g
     id="g23"
     transform="translate(2.5337838e-6,-62.441)" /><g
     id="g25"
     transform="translate(2.5337838e-6,-62.441)" /><g
     id="g27"
     transform="translate(2.5337838e-6,-62.441)" /><g
     id="g29"
     transform="translate(2.5337838e-6,-62.441)" /><g
     id="g31"
     transform="translate(2.5337838e-6,-62.441)" /><g
     id="g33"
     transform="translate(2.5337838e-6,-62.441)" /><g
     id="g35"
     transform="translate(2.5337838e-6,-62.441)" /><g
     id="g37"
     transform="translate(2.5337838e-6,-62.441)" /></svg>